<svg width="390" height="122" viewBox="0 0 390 122" fill="none" xmlns="http://www.w3.org/2000/svg">
<path d="M3.86589 31.144C3.39389 31.144 2.95389 31.06 2.54589 30.892C2.13789 30.724 1.78589 30.488 1.48989 30.184C1.19389 29.872 0.973891 29.504 0.829891 29.08L1.82589 28.672C1.99389 29.12 2.25789 29.468 2.61789 29.716C2.97789 29.964 3.39389 30.088 3.86589 30.088C4.23389 30.088 4.56189 30.016 4.84989 29.872C5.13789 29.728 5.36189 29.52 5.52189 29.248C5.68989 28.976 5.77389 28.648 5.77389 28.264C5.77389 27.872 5.68989 27.544 5.52189 27.28C5.36189 27.008 5.13789 26.8 4.84989 26.656C4.56189 26.512 4.22989 26.44 3.85389 26.44C3.73389 26.44 3.60189 26.448 3.45789 26.464C3.32189 26.48 3.20589 26.504 3.10989 26.536L2.85789 25.996L5.24589 23.08H1.28589V22.06H6.57789V23.044L4.29789 25.852L4.22589 25.54C4.76189 25.556 5.23389 25.68 5.64189 25.912C6.04989 26.144 6.36989 26.46 6.60189 26.86C6.83389 27.252 6.94989 27.712 6.94989 28.24C6.94989 28.784 6.81789 29.276 6.55389 29.716C6.28989 30.156 5.92589 30.504 5.46189 30.76C4.99789 31.016 4.46589 31.144 3.86589 31.144Z" fill="#141522"/>
<path d="M1.0562 65V64.184L3.5282 61.508C4.0162 60.988 4.4042 60.56 4.6922 60.224C4.9882 59.888 5.2042 59.588 5.3402 59.324C5.4762 59.06 5.5442 58.78 5.5442 58.484C5.5442 57.996 5.4002 57.62 5.1122 57.356C4.8242 57.092 4.4442 56.96 3.9722 56.96C3.4922 56.96 3.0842 57.1 2.7482 57.38C2.4122 57.652 2.1802 58.04 2.0522 58.544L0.984203 58.268C1.0882 57.788 1.2802 57.372 1.5602 57.02C1.8402 56.668 2.1882 56.396 2.6042 56.204C3.0202 56.012 3.4762 55.916 3.9722 55.916C4.5162 55.916 4.9922 56.024 5.4002 56.24C5.8162 56.448 6.1402 56.74 6.3722 57.116C6.6122 57.492 6.7322 57.928 6.7322 58.424C6.7322 58.752 6.6642 59.072 6.5282 59.384C6.3922 59.696 6.1922 60.028 5.9282 60.38C5.6642 60.724 5.3202 61.124 4.8962 61.58L2.6882 63.98H6.9242V65H1.0562Z" fill="#141522"/>
<path d="M3.84498 99V91.08H2.15298V90.06H5.03298V99H3.84498Z" fill="#141522"/>
<line x1="28.5" y1="19" x2="28.5" y2="99" stroke="#F5F5F7"/>
<path d="M28.068 119.144C27.5 119.144 26.98 119.04 26.508 118.832C26.036 118.616 25.636 118.324 25.308 117.956C24.98 117.588 24.744 117.176 24.6 116.72L25.62 116.3C25.836 116.876 26.156 117.32 26.58 117.632C27.012 117.936 27.516 118.088 28.092 118.088C28.444 118.088 28.752 118.032 29.016 117.92C29.28 117.808 29.484 117.652 29.628 117.452C29.78 117.244 29.856 117.004 29.856 116.732C29.856 116.356 29.748 116.06 29.532 115.844C29.324 115.62 29.016 115.452 28.608 115.34L26.964 114.836C26.316 114.636 25.82 114.32 25.476 113.888C25.132 113.456 24.96 112.96 24.96 112.4C24.96 111.912 25.076 111.484 25.308 111.116C25.548 110.74 25.876 110.448 26.292 110.24C26.716 110.024 27.196 109.916 27.732 109.916C28.268 109.916 28.752 110.012 29.184 110.204C29.624 110.396 29.996 110.656 30.3 110.984C30.604 111.304 30.828 111.672 30.972 112.088L29.964 112.508C29.772 112.004 29.484 111.624 29.1 111.368C28.716 111.104 28.264 110.972 27.744 110.972C27.424 110.972 27.14 111.028 26.892 111.14C26.652 111.244 26.464 111.4 26.328 111.608C26.2 111.808 26.136 112.048 26.136 112.328C26.136 112.656 26.24 112.948 26.448 113.204C26.656 113.46 26.972 113.656 27.396 113.792L28.896 114.236C29.6 114.452 30.132 114.76 30.492 115.16C30.852 115.56 31.032 116.056 31.032 116.648C31.032 117.136 30.904 117.568 30.648 117.944C30.4 118.32 30.052 118.616 29.604 118.832C29.164 119.04 28.652 119.144 28.068 119.144Z" fill="#141522"/>
<line x1="89" y1="19" x2="89" y2="99" stroke="#F5F5F7"/>
<path d="M83.996 119V110.06H85.076L88.424 114.824H87.872L91.196 110.06H92.276V119H91.088V111.548L91.508 111.68L88.184 116.36H88.088L84.8 111.68L85.172 111.548V119H83.996Z" fill="#141522"/>
<line x1="149" y1="19" x2="149" y2="99" stroke="#F5F5F7"/>
<path d="M147.556 119V111.14H145.132V110.06H151.132V111.14H148.744V119H147.556Z" fill="#141522"/>
<line x1="209.5" y1="19" x2="209.5" y2="99" stroke="#F5F5F7"/>
<path d="M205.64 119L203.132 110.06H204.368L206.468 117.932H206.18L208.364 110.06H209.6L211.772 117.932H211.472L213.584 110.06H214.82L212.312 119H211.004L208.82 111.164H209.132L206.948 119H205.64Z" fill="#141522"/>
<line x1="270" y1="19" x2="270" y2="99" stroke="#F5F5F7"/>
<path d="M268.556 119V111.14H266.132V110.06H272.132V111.14H269.744V119H268.556Z" fill="#141522"/>
<line x1="328" y1="19" x2="328" y2="99" stroke="#F5F5F7"/>
<path d="M324.996 119V110.06H330.66V111.14H326.172V114.032H330.24V115.112H326.172V119H324.996Z" fill="#141522"/>
<line x1="386.5" y1="19" x2="386.5" y2="99" stroke="#F5F5F7"/>
<path d="M386.068 119.144C385.5 119.144 384.98 119.04 384.508 118.832C384.036 118.616 383.636 118.324 383.308 117.956C382.98 117.588 382.744 117.176 382.6 116.72L383.62 116.3C383.836 116.876 384.156 117.32 384.58 117.632C385.012 117.936 385.516 118.088 386.092 118.088C386.444 118.088 386.752 118.032 387.016 117.92C387.28 117.808 387.484 117.652 387.628 117.452C387.78 117.244 387.856 117.004 387.856 116.732C387.856 116.356 387.748 116.06 387.532 115.844C387.324 115.62 387.016 115.452 386.608 115.34L384.964 114.836C384.316 114.636 383.82 114.32 383.476 113.888C383.132 113.456 382.96 112.96 382.96 112.4C382.96 111.912 383.076 111.484 383.308 111.116C383.548 110.74 383.876 110.448 384.292 110.24C384.716 110.024 385.196 109.916 385.732 109.916C386.268 109.916 386.752 110.012 387.184 110.204C387.624 110.396 387.996 110.656 388.3 110.984C388.604 111.304 388.828 111.672 388.972 112.088L387.964 112.508C387.772 112.004 387.484 111.624 387.1 111.368C386.716 111.104 386.264 110.972 385.744 110.972C385.424 110.972 385.14 111.028 384.892 111.14C384.652 111.244 384.464 111.4 384.328 111.608C384.2 111.808 384.136 112.048 384.136 112.328C384.136 112.656 384.24 112.948 384.448 113.204C384.656 113.46 384.972 113.656 385.396 113.792L386.896 114.236C387.6 114.452 388.132 114.76 388.492 115.16C388.852 115.56 389.032 116.056 389.032 116.648C389.032 117.136 388.904 117.568 388.648 117.944C388.4 118.32 388.052 118.616 387.604 118.832C387.164 119.04 386.652 119.144 386.068 119.144Z" fill="#141522"/>
<path d="M28 108L72.5556 84.1899C81.1341 79.6056 91.4026 79.4648 100.104 83.8121L130.901 99.1997C141.595 104.543 154.44 103.027 163.596 95.3418L192.389 71.1759C202.437 62.7419 216.801 61.8153 227.85 68.8884L255.53 86.6082C264.517 92.3609 275.882 92.9076 285.379 88.0439L319.692 70.4713C325.273 67.6133 331.609 66.5756 337.81 67.5042L386 74.7203" stroke="#EBEDF7" stroke-width="3" stroke-linecap="round"/>
<path d="M28 99.5323L71.075 71.9568C81.8587 65.0533 95.8354 65.755 105.874 73.7037L125.703 89.4056C138.678 99.6798 157.522 97.5059 167.816 84.5474L188.794 58.1414C199.599 44.5411 219.66 42.9306 232.496 54.633L254.418 74.6201C263.45 82.8537 276.572 84.7861 287.593 79.5055L319.3 64.3134C324.601 61.7734 330.532 60.8468 336.355 61.6486L386 68.4839" stroke="#141522" stroke-width="3" stroke-linecap="round"/>
<g filter="url(#filter0_d_2_2552)">
<circle cx="88" cy="67" r="6" fill="white" stroke="#546FFF" stroke-width="4"/>
</g>
<g filter="url(#filter1_d_2_2552)">
<path d="M86.4571 45.1293C87.2571 46.0992 88.7429 46.0992 89.5429 45.1293L93.9611 39.7726C95.037 38.4681 94.1091 36.5 92.4182 36.5H83.5818C81.8909 36.5 80.963 38.4681 82.0389 39.7726L86.4571 45.1293Z" fill="#141522"/>
</g>
<rect x="46" width="84" height="40" rx="10" fill="#141522"/>
<path d="M69.0836 26V24.81L71.9396 21.758C72.4996 21.1607 72.9383 20.68 73.2556 20.316C73.5823 19.9427 73.8156 19.616 73.9556 19.336C74.1049 19.056 74.1796 18.762 74.1796 18.454C74.1796 17.95 74.0256 17.5627 73.7176 17.292C73.4096 17.012 73.0129 16.872 72.5276 16.872C72.0236 16.872 71.5896 17.0167 71.2256 17.306C70.8616 17.586 70.6096 17.9967 70.4696 18.538L69.0136 18.118C69.1256 17.5673 69.3496 17.0913 69.6856 16.69C70.0216 16.2793 70.4323 15.962 70.9176 15.738C71.4123 15.514 71.9443 15.402 72.5136 15.402C73.1763 15.402 73.7549 15.528 74.2496 15.78C74.7443 16.0227 75.1269 16.3633 75.3976 16.802C75.6776 17.2407 75.8176 17.7493 75.8176 18.328C75.8176 18.7107 75.7429 19.084 75.5936 19.448C75.4536 19.8027 75.2343 20.1807 74.9356 20.582C74.6369 20.974 74.2543 21.4173 73.7876 21.912L71.2676 24.6H76.0136V26H69.0836ZM81.564 26V17.04H78.792V15.57H85.932V17.04H83.202V26H81.564ZM88.1672 26.168C87.6539 26.168 87.2012 26.0793 86.8092 25.902C86.4266 25.7153 86.1279 25.4633 85.9132 25.146C85.6986 24.8193 85.5912 24.4367 85.5912 23.998C85.5912 23.5873 85.6799 23.2187 85.8572 22.892C86.0439 22.5653 86.3286 22.29 86.7112 22.066C87.0939 21.842 87.5746 21.6833 88.1532 21.59L90.7852 21.156V22.402L88.4612 22.808C88.0412 22.8827 87.7332 23.018 87.5372 23.214C87.3412 23.4007 87.2432 23.6433 87.2432 23.942C87.2432 24.2313 87.3506 24.4693 87.5652 24.656C87.7892 24.8333 88.0739 24.922 88.4192 24.922C88.8486 24.922 89.2219 24.8287 89.5392 24.642C89.8659 24.4553 90.1179 24.208 90.2952 23.9C90.4726 23.5827 90.5612 23.2327 90.5612 22.85V20.904C90.5612 20.5307 90.4212 20.2273 90.1412 19.994C89.8706 19.7513 89.5066 19.63 89.0492 19.63C88.6292 19.63 88.2606 19.742 87.9432 19.966C87.6352 20.1807 87.4066 20.4607 87.2572 20.806L85.9412 20.148C86.0812 19.7747 86.3099 19.448 86.6272 19.168C86.9446 18.8787 87.3132 18.6547 87.7332 18.496C88.1626 18.3373 88.6152 18.258 89.0912 18.258C89.6886 18.258 90.2159 18.37 90.6732 18.594C91.1399 18.818 91.4992 19.1307 91.7512 19.532C92.0126 19.924 92.1432 20.3813 92.1432 20.904V26H90.6312V24.628L90.9532 24.67C90.7759 24.978 90.5472 25.244 90.2672 25.468C89.9966 25.692 89.6839 25.8647 89.3292 25.986C88.9839 26.1073 88.5966 26.168 88.1672 26.168ZM96.513 26.168C95.7383 26.168 95.057 25.9767 94.469 25.594C93.8903 25.2113 93.4843 24.698 93.251 24.054L94.469 23.48C94.6743 23.9093 94.9543 24.25 95.309 24.502C95.673 24.754 96.0743 24.88 96.513 24.88C96.8863 24.88 97.1897 24.796 97.423 24.628C97.6563 24.46 97.773 24.2313 97.773 23.942C97.773 23.7553 97.7217 23.606 97.619 23.494C97.5163 23.3727 97.3857 23.2747 97.227 23.2C97.0777 23.1253 96.9237 23.0693 96.765 23.032L95.575 22.696C94.9217 22.5093 94.4317 22.2293 94.105 21.856C93.7877 21.4733 93.629 21.03 93.629 20.526C93.629 20.0687 93.7457 19.672 93.979 19.336C94.2123 18.9907 94.5343 18.7247 94.945 18.538C95.3557 18.3513 95.8177 18.258 96.331 18.258C97.0217 18.258 97.6377 18.4307 98.179 18.776C98.7203 19.112 99.103 19.5833 99.327 20.19L98.109 20.764C97.9597 20.4 97.7217 20.1107 97.395 19.896C97.0777 19.6813 96.7183 19.574 96.317 19.574C95.9717 19.574 95.6963 19.658 95.491 19.826C95.2857 19.9847 95.183 20.1947 95.183 20.456C95.183 20.6333 95.2297 20.7827 95.323 20.904C95.4163 21.016 95.5377 21.1093 95.687 21.184C95.8363 21.2493 95.9903 21.3053 96.149 21.352L97.381 21.716C98.0063 21.8933 98.487 22.1733 98.823 22.556C99.159 22.9293 99.327 23.3773 99.327 23.9C99.327 24.348 99.2057 24.7447 98.963 25.09C98.7297 25.426 98.403 25.692 97.983 25.888C97.563 26.0747 97.073 26.168 96.513 26.168ZM100.597 26V15.402H102.179V22.5L101.563 22.346L105.357 18.426H107.331L104.475 21.464L107.457 26H105.637L102.977 21.982L103.915 21.856L101.675 24.236L102.179 23.186V26H100.597Z" fill="white"/>
<defs>
<filter id="filter0_d_2_2552" x="76" y="59" width="24" height="24" filterUnits="userSpaceOnUse" color-interpolation-filters="sRGB">
<feFlood flood-opacity="0" result="BackgroundImageFix"/>
<feColorMatrix in="SourceAlpha" type="matrix" values="0 0 0 0 0 0 0 0 0 0 0 0 0 0 0 0 0 0 127 0" result="hardAlpha"/>
<feOffset dy="4"/>
<feGaussianBlur stdDeviation="2"/>
<feComposite in2="hardAlpha" operator="out"/>
<feColorMatrix type="matrix" values="0 0 0 0 0 0 0 0 0 0 0 0 0 0 0 0 0 0 0.1 0"/>
<feBlend mode="normal" in2="BackgroundImageFix" result="effect1_dropShadow_2_2552"/>
<feBlend mode="normal" in="SourceGraphic" in2="effect1_dropShadow_2_2552" result="shape"/>
</filter>
<filter id="filter1_d_2_2552" x="56.578" y="15.5" width="62.844" height="59.3568" filterUnits="userSpaceOnUse" color-interpolation-filters="sRGB">
<feFlood flood-opacity="0" result="BackgroundImageFix"/>
<feColorMatrix in="SourceAlpha" type="matrix" values="0 0 0 0 0 0 0 0 0 0 0 0 0 0 0 0 0 0 127 0" result="hardAlpha"/>
<feOffset dy="4"/>
<feGaussianBlur stdDeviation="12.5"/>
<feColorMatrix type="matrix" values="0 0 0 0 0 0 0 0 0 0 0 0 0 0 0 0 0 0 0.1 0"/>
<feBlend mode="normal" in2="BackgroundImageFix" result="effect1_dropShadow_2_2552"/>
<feBlend mode="normal" in="SourceGraphic" in2="effect1_dropShadow_2_2552" result="shape"/>
</filter>
</defs>
</svg>
